<mxfile host="app.diagrams.net" modified="2023-11-26T01:59:46.194Z" agent="Mozilla/5.0 (Macintosh; Intel Mac OS X 10_15_7) AppleWebKit/605.1.15 (KHTML, like Gecko) Version/17.0 Safari/605.1.15" etag="M1sdugoWAemfdGrcDfE9" version="22.1.4" type="github">
  <diagram id="R2lEEEUBdFMjLlhIrx00" name="Page-1">
    <mxGraphModel dx="954" dy="727" grid="1" gridSize="15" guides="1" tooltips="1" connect="1" arrows="1" fold="1" page="1" pageScale="1" pageWidth="850" pageHeight="1100" math="0" shadow="0" extFonts="Permanent Marker^https://fonts.googleapis.com/css?family=Permanent+Marker">
      <root>
        <mxCell id="0" />
        <mxCell id="1" parent="0" />
        <mxCell id="6_lCqUr0_RcssYFRgil6-3" value="&lt;h3&gt;&lt;br&gt;&lt;/h3&gt;" style="rounded=0;whiteSpace=wrap;html=1;fillColor=none;strokeColor=#FF99FF;strokeWidth=2;" vertex="1" parent="1">
          <mxGeometry x="60" y="225" width="120" height="45" as="geometry" />
        </mxCell>
        <mxCell id="6_lCqUr0_RcssYFRgil6-5" value="&lt;h3&gt;&lt;br&gt;&lt;/h3&gt;" style="rounded=0;whiteSpace=wrap;html=1;fillColor=none;strokeColor=#EA6B66;strokeWidth=2;" vertex="1" parent="1">
          <mxGeometry x="60" y="285" width="120" height="45" as="geometry" />
        </mxCell>
        <mxCell id="6_lCqUr0_RcssYFRgil6-6" value="&lt;h3&gt;&lt;br&gt;&lt;/h3&gt;" style="rounded=0;whiteSpace=wrap;html=1;fillColor=none;strokeColor=#66FFB3;strokeWidth=2;" vertex="1" parent="1">
          <mxGeometry x="60" y="345" width="120" height="45" as="geometry" />
        </mxCell>
        <mxCell id="6_lCqUr0_RcssYFRgil6-7" value="&lt;h3&gt;&lt;br&gt;&lt;/h3&gt;" style="rounded=0;whiteSpace=wrap;html=1;fillColor=none;strokeColor=#004C99;strokeWidth=2;" vertex="1" parent="1">
          <mxGeometry x="60" y="405" width="120" height="45" as="geometry" />
        </mxCell>
        <mxCell id="6_lCqUr0_RcssYFRgil6-8" value="&lt;h3&gt;&lt;br&gt;&lt;/h3&gt;" style="rounded=0;whiteSpace=wrap;html=1;fillColor=none;strokeColor=#9999FF;strokeWidth=2;" vertex="1" parent="1">
          <mxGeometry x="60" y="465" width="120" height="45" as="geometry" />
        </mxCell>
        <mxCell id="6_lCqUr0_RcssYFRgil6-9" value="&lt;h3&gt;&lt;br&gt;&lt;/h3&gt;" style="rounded=0;whiteSpace=wrap;html=1;fillColor=none;strokeColor=#4D2600;strokeWidth=2;" vertex="1" parent="1">
          <mxGeometry x="60" y="527.5" width="120" height="45" as="geometry" />
        </mxCell>
        <mxCell id="6_lCqUr0_RcssYFRgil6-11" value="" style="endArrow=blockThin;html=1;rounded=0;strokeWidth=2;endFill=1;strokeColor=#FF99FF;" edge="1" parent="1">
          <mxGeometry width="50" height="50" relative="1" as="geometry">
            <mxPoint x="195" y="240" as="sourcePoint" />
            <mxPoint x="270" y="240" as="targetPoint" />
          </mxGeometry>
        </mxCell>
        <mxCell id="6_lCqUr0_RcssYFRgil6-12" value="" style="endArrow=blockThin;html=1;rounded=0;strokeWidth=2;endFill=1;strokeColor=#EA6B66;" edge="1" parent="1">
          <mxGeometry width="50" height="50" relative="1" as="geometry">
            <mxPoint x="195" y="300" as="sourcePoint" />
            <mxPoint x="270" y="300" as="targetPoint" />
          </mxGeometry>
        </mxCell>
        <mxCell id="6_lCqUr0_RcssYFRgil6-13" value="" style="endArrow=blockThin;html=1;rounded=0;strokeWidth=2;endFill=1;strokeColor=#66FFB3;" edge="1" parent="1">
          <mxGeometry width="50" height="50" relative="1" as="geometry">
            <mxPoint x="195" y="360" as="sourcePoint" />
            <mxPoint x="270" y="360" as="targetPoint" />
          </mxGeometry>
        </mxCell>
        <mxCell id="6_lCqUr0_RcssYFRgil6-14" value="" style="endArrow=blockThin;html=1;rounded=0;strokeWidth=2;endFill=1;strokeColor=#004C99;" edge="1" parent="1">
          <mxGeometry width="50" height="50" relative="1" as="geometry">
            <mxPoint x="195" y="420" as="sourcePoint" />
            <mxPoint x="270" y="420" as="targetPoint" />
          </mxGeometry>
        </mxCell>
        <mxCell id="6_lCqUr0_RcssYFRgil6-15" value="" style="endArrow=blockThin;html=1;rounded=0;strokeWidth=2;endFill=1;strokeColor=#9999FF;" edge="1" parent="1">
          <mxGeometry width="50" height="50" relative="1" as="geometry">
            <mxPoint x="195" y="480" as="sourcePoint" />
            <mxPoint x="270" y="480" as="targetPoint" />
          </mxGeometry>
        </mxCell>
        <mxCell id="6_lCqUr0_RcssYFRgil6-17" value="" style="endArrow=blockThin;html=1;rounded=0;strokeWidth=2;endFill=1;strokeColor=#4D2600;" edge="1" parent="1">
          <mxGeometry width="50" height="50" relative="1" as="geometry">
            <mxPoint x="195" y="540" as="sourcePoint" />
            <mxPoint x="270" y="540" as="targetPoint" />
          </mxGeometry>
        </mxCell>
      </root>
    </mxGraphModel>
  </diagram>
</mxfile>
